<svg width="500" height="399" viewBox="0 0 500 299" fill="none" xmlns="http://www.w3.org/2000/svg">
<path fill-rule="evenodd" clip-rule="evenodd" d="M126 267.33H308C309.03 267.33 310.034 267.219 311 267.008C311.966 267.219 312.97 267.33 314 267.33H418C425.732 267.33 432 261.077 432 253.365C432 245.652 425.732 239.4 418 239.4H406C398.268 239.4 392 233.147 392 225.435C392 217.722 398.268 211.47 406 211.47H444C451.732 211.47 458 205.217 458 197.505C458 189.792 451.732 183.54 444 183.54H400C407.732 183.54 414 177.287 414 169.575C414 161.862 407.732 155.61 400 155.61H272C279.732 155.61 286 149.357 286 141.645C286 133.932 279.732 127.68 272 127.68H158C150.268 127.68 144 133.932 144 141.645C144 149.357 150.268 155.61 158 155.61H78C70.268 155.61 64 161.862 64 169.575C64 177.287 70.268 183.54 78 183.54H128C135.732 183.54 142 189.792 142 197.505C142 205.217 135.732 211.47 128 211.47H48C40.268 211.47 34 217.722 34 225.435C34 233.147 40.268 239.4 48 239.4H126C118.268 239.4 112 245.652 112 253.365C112 261.077 118.268 267.33 126 267.33ZM452 267.33C459.732 267.33 466 261.077 466 253.365C466 245.652 459.732 239.4 452 239.4C444.268 239.4 438 245.652 438 253.365C438 261.077 444.268 267.33 452 267.33Z" fill="#0BB967" fill-opacity="0.09"/>
<path fill-rule="evenodd" clip-rule="evenodd" d="M226.237 224.052C226.081 225.155 226 226.283 226 227.43C226 240.652 236.745 251.37 250 251.37C263.255 251.37 274 240.652 274 227.43C274 226.283 273.919 225.155 273.763 224.052H332V277.305C332 280.61 329.314 283.29 326 283.29H174C170.686 283.29 168 280.61 168 277.305V224.052H226.237Z" fill="white"/>
<path fill-rule="evenodd" clip-rule="evenodd" d="M276 223.44C276 237.763 264.359 249.375 250 249.375C235.641 249.375 224 237.763 224 223.44C224 222.976 224.012 222.514 224.036 222.056H168L187.121 165.662C187.945 163.231 190.232 161.595 192.805 161.595H307.195C309.768 161.595 312.055 163.231 312.879 165.662L332 222.056H275.964C275.988 222.514 276 222.976 276 223.44Z" fill="white"/>
<path fill-rule="evenodd" clip-rule="evenodd" d="M272.195 225.344C272.195 236.412 262.258 247.38 250 247.38C237.742 247.38 227.805 236.412 227.805 225.344C227.805 224.986 227.815 222.634 227.836 222.28H186L202.323 182.693C203.026 180.814 204.978 179.55 207.175 179.55H292.825C295.022 179.55 296.974 180.814 297.677 182.693L314 222.28H272.164C272.185 222.634 272.195 224.986 272.195 225.344Z" fill="#0BB967" fill-opacity="0.17"/>
<path fill-rule="evenodd" clip-rule="evenodd" d="M170.5 222.467V275.31C170.5 277.238 172.067 278.801 174 278.801H326C327.933 278.801 329.5 277.238 329.5 275.31V222.467L310.511 166.462C310.03 165.043 308.696 164.089 307.195 164.089H192.805C191.304 164.089 189.97 165.043 189.489 166.462L170.5 222.467Z" stroke="#313A4E" stroke-width="2.5"/>
<path d="M196 221.445C203.873 221.445 212.37 221.445 221.49 221.445C225.242 221.445 225.242 224.076 225.242 225.435C225.242 238.657 236.235 249.375 249.795 249.375C263.354 249.375 274.347 238.657 274.347 225.435C274.347 224.076 274.347 221.445 278.099 221.445H328M181.147 221.445H186H181.147Z" stroke="#313A4E" stroke-width="2.5" stroke-linecap="round" stroke-linejoin="round"/>
<path d="M300.199 116.314L278 141.158M248.199 107.73V141.158V107.73ZM196 116.314L218.199 141.158L196 116.314Z" stroke="#313A4E" stroke-width="2.5" stroke-linecap="round" stroke-linejoin="round"/>
</svg>
